<svg xmlns="http://www.w3.org/2000/svg" xmlns:svg="http://www.w3.org/2000/svg" id="svg20" width="1068" height="460" fill="none" version="1.1" viewBox="0 0 1068 460"><metadata id="metadata26"/><g id="g59" transform="translate(-106,-89.794188)"><path id="path2" fill="#d8b6ff" fill-rule="evenodd" d="m 876.672,403.202 c -14.819,5.364 -23.068,21.05 -18.409,35.007 4.659,13.958 20.473,20.935 35.292,15.572 14.819,-5.364 23.068,-21.05 18.409,-35.007 -4.659,-13.957 -20.473,-20.935 -35.292,-15.572 z M 393.035,261.378 c 3.869,0 5.803,1.935 5.803,5.804 v 181.839 c 0,3.868 -1.934,5.803 -5.803,5.803 h -38.303 c -3.869,0 -5.803,-1.935 -5.803,-5.803 V 267.182 c 0,-3.869 1.934,-5.804 5.803,-5.804 z m 157.464,-1.547 c 42.172,0 56.873,28.63 56.873,68.093 v 121.097 c 0,3.868 -1.934,5.803 -5.803,5.803 h -38.302 c -3.869,0 -5.804,-1.935 -5.804,-5.803 V 322.12 c 0,-13.154 -9.672,-17.797 -20.892,-17.797 h -4.642 c -16.637,0 -28.63,6.964 -32.886,13.928 v 130.77 c 0,3.868 -1.935,5.803 -5.804,5.803 h -38.302 c -3.869,0 -5.803,-1.935 -5.803,-5.803 V 267.182 c 0,-3.869 1.934,-5.804 5.803,-5.804 h 38.302 c 3.869,0 5.804,1.935 5.804,5.804 v 17.023 c 5.803,-9.672 20.505,-24.374 49.135,-24.374 z M 697.905,184 c 3.869,0 5.803,1.935 5.803,5.803 v 134.252 l 54.939,-58.034 c 2.321,-2.708 5.803,-4.643 8.899,-4.643 h 39.849 c 5.03,0 9.672,5.804 2.708,13.155 l -57.646,61.902 67.319,107.943 c 2.321,4.256 1.934,10.446 -4.643,10.446 h -36.368 c -5.029,0 -9.672,-1.548 -12.767,-6.964 l -47.201,-78.152 -15.089,15.089 v 64.224 c 0,3.868 -1.934,5.803 -5.803,5.803 h -38.302 c -3.869,0 -5.804,-1.935 -5.804,-5.803 V 189.803 c 0,-3.868 1.935,-5.803 5.804,-5.803 z m -331.528,9.192 c -14.524,4.391 -23.263,19.045 -19.505,32.704 3.759,13.658 18.601,21.182 33.125,16.791 14.523,-4.391 23.263,-19.046 19.504,-32.704 -3.758,-13.658 -18.601,-21.182 -33.124,-16.791 z" clip-rule="evenodd"/><path id="path4" fill="#d8b6ff" fill-rule="evenodd" d="m 871.936,358.164 -8.431,-0.063 c -3.869,0 -5.803,-1.934 -5.803,-5.803 V 189.803 c 0,-3.868 1.934,-5.803 5.803,-5.803 h 39.463 c 3.869,0 5.804,1.935 5.804,5.803 l -0.024,5.484 c -15.008,3.656 -26.694,18.949 -27.629,38.018 -0.751,15.316 5.624,29.19 15.701,37.04 -7.507,5.108 -13.025,13.734 -14.408,24.065 -1.506,11.248 2.24,21.904 9.186,28.949 -7.011,3.078 -13.397,9.368 -17.031,17.662 -2.569,5.864 -3.371,11.836 -2.631,17.143 z" clip-rule="evenodd"/><path id="path6" fill="#d8b6ff" fill-rule="evenodd" d="m 884.126,345.023 c -2.877,6.566 -0.676,13.499 4.911,15.473 5.587,1.974 12.458,-1.755 15.335,-8.321 2.877,-6.567 0.676,-13.5 -4.911,-15.473 -5.587,-1.974 -12.458,1.755 -15.335,8.321 z m 10.419,-48.072 c -1.92,10.165 3.44,19.709 11.964,21.298 8.523,1.59 17.002,-5.374 18.923,-15.539 1.921,-10.166 -3.44,-19.71 -11.963,-21.299 -8.524,-1.589 -17.003,5.374 -18.924,15.54 z m -2.141,-59.916 c -0.682,13.91 8.254,25.874 19.942,26.7 11.688,0.827 21.731,-9.795 22.413,-23.705 0.682,-13.91 -8.254,-25.874 -19.942,-26.7 -11.688,-0.826 -21.731,9.796 -22.413,23.705 z" clip-rule="evenodd"/><rect id="rect8" width="144" height="36" x="0" y="0" fill="#5a007e" rx="8" transform="matrix(1,0,0,-1,960,455)"/><path id="path10" fill="#5a007e" d="m 176,263 c 0,-4.418 3.582,-8 8,-8 h 24 c 4.418,0 8,3.582 8,8 v 24 c 0,4.418 -3.582,8 -8,8 h -24 c -4.418,0 -8,-3.582 -8,-8 z"/><path id="path12" fill="#5a007e" d="m 176,447 c 0,4.418 3.582,8 8,8 h 24 c 4.418,0 8,-3.582 8,-8 v -24 c 0,-4.418 -3.582,-8 -8,-8 h -24 c -4.418,0 -8,3.582 -8,8 z"/><path id="path14" fill="#5a007e" d="m 216,303 c 0,-4.418 3.582,-8 8,-8 h 24 c 4.418,0 8,3.582 8,8 v 24 c 0,4.418 -3.582,8 -8,8 h -24 c -4.418,0 -8,-3.582 -8,-8 z"/><path id="path16" fill="#5a007e" d="m 216,407 c 0,4.418 3.582,8 8,8 h 24 c 4.418,0 8,-3.582 8,-8 v -24 c 0,-4.418 -3.582,-8 -8,-8 h -24 c -4.418,0 -8,3.582 -8,8 z"/><path id="path18" fill="#5a007e" d="m 256,343 c 0,-4.418 3.582,-8 8,-8 h 24 c 4.418,0 8,3.582 8,8 v 24 c 0,4.418 -3.582,8 -8,8 h -24 c -4.418,0 -8,-3.582 -8,-8 z"/></g></svg>